<svg width="1080" height="1080" viewBox="0 0 1080 1080" fill="none" xmlns="http://www.w3.org/2000/svg">
<rect width="1080" height="1080" fill="black"/>
<path d="M497.524 516.884V443H517.436V479.549H517.698C521.497 474.047 528.178 470.51 537.086 470.51C552.413 470.51 563.548 483.217 563.417 502.867C563.417 525.923 548.876 537.451 534.204 537.451C526.737 537.451 519.401 534.7 514.947 527.102H514.685L513.899 536.01H497C497.262 531.818 497.524 524.089 497.524 516.884ZM517.436 499.33V508.762C517.436 510.072 517.567 511.251 517.829 512.299C519.139 517.539 523.724 521.731 529.488 521.731C538.003 521.731 543.243 515.181 543.243 503.653C543.243 493.697 538.789 485.837 529.488 485.837C524.117 485.837 519.139 489.898 517.829 495.662C517.567 496.841 517.436 498.02 517.436 499.33Z" fill="white"/>
<path d="M575.817 536.01V493.042C575.817 483.61 575.686 477.453 575.293 471.951H592.323L593.109 483.741H593.633C596.908 474.309 604.637 470.379 610.925 470.379C612.759 470.379 613.676 470.51 615.117 470.772V489.505C613.545 489.243 611.973 488.981 609.746 488.981C602.41 488.981 597.432 492.911 596.122 499.068C595.86 500.378 595.729 501.95 595.729 503.522V536.01H575.817Z" fill="white"/>
<path d="M677.491 498.151V520.552C677.491 526.578 677.753 532.473 678.539 536.01H660.592L659.413 529.591H659.02C654.828 534.7 648.278 537.451 640.68 537.451C627.711 537.451 619.982 528.019 619.982 517.801C619.982 501.164 634.916 493.304 657.579 493.304V492.518C657.579 488.981 655.745 484.134 645.92 484.134C639.37 484.134 632.427 486.361 628.235 488.981L624.567 476.143C629.021 473.654 637.798 470.379 649.457 470.379C670.81 470.379 677.491 482.955 677.491 498.151ZM658.234 512.692V505.749C647.754 505.749 639.632 508.238 639.632 515.836C639.632 520.945 643.038 523.434 647.492 523.434C652.339 523.434 656.531 520.159 657.841 516.098C658.103 515.05 658.234 513.871 658.234 512.692Z" fill="white"/>
<path d="M436.26 586.955H394.995C395.519 595.208 403.772 599.138 413.073 599.138C419.885 599.138 425.387 598.221 430.758 596.387L433.378 609.88C426.828 612.631 418.837 613.941 410.191 613.941C388.445 613.941 376 601.365 376 581.322C376 565.078 386.087 547.131 408.357 547.131C429.055 547.131 436.915 563.244 436.915 579.095C436.915 582.501 436.522 585.514 436.26 586.955ZM394.864 573.331H418.444C418.444 568.484 416.348 560.362 407.178 560.362C398.794 560.362 395.388 568.091 394.864 573.331Z" fill="white"/>
<path d="M448.878 612.631V569.663C448.878 560.231 448.747 554.074 448.354 548.572H465.384L466.17 560.362H466.694C469.969 550.93 477.698 547 483.986 547C485.82 547 486.737 547.131 488.178 547.393V566.126C486.606 565.864 485.034 565.602 482.807 565.602C475.471 565.602 470.493 569.532 469.183 575.689C468.921 576.999 468.79 578.571 468.79 580.143V612.631H448.878Z" fill="white"/>
<path d="M498.643 638.569V570.056C498.643 561.672 498.381 554.598 498.119 548.572H515.411L516.328 557.48H516.59C521.306 550.799 528.642 547.131 537.943 547.131C551.96 547.131 564.536 559.314 564.536 579.75C564.536 603.068 549.733 614.072 535.454 614.072C527.725 614.072 521.699 610.928 518.817 606.736H518.555V638.569H498.643ZM518.555 576.344V585.121C518.555 586.693 518.686 588.003 518.948 589.313C520.258 594.684 524.843 598.745 530.607 598.745C539.253 598.745 544.362 591.54 544.362 580.667C544.362 570.449 539.777 562.72 530.869 562.72C525.236 562.72 520.258 566.912 518.948 572.807C518.686 573.855 518.555 575.165 518.555 576.344Z" fill="white"/>
<circle cx="435" cy="452" r="13" fill="white"/>
<circle cx="435" cy="524" r="13" fill="white"/>
<ellipse cx="461.5" cy="488" rx="17.5" ry="18" fill="white"/>
<path d="M448 476C436.501 482.447 424.963 478.686 421 476C427.125 484.629 423.732 496.103 421.18 499C430.26 490.98 443.03 495.658 448 499C442.573 491.336 445.739 479.299 448 476Z" fill="white"/>
<circle cx="408" cy="488" r="18" fill="white"/>
<path d="M584.627 557.614L587.981 556.6V561.124H592.895V563.737H587.981V573.916C587.981 576.256 588.644 577.582 590.555 577.582C591.491 577.582 592.037 577.504 592.544 577.348L592.7 579.961C592.037 580.195 590.984 580.429 589.658 580.429C588.059 580.429 586.772 579.883 585.953 578.986C585.017 577.933 584.627 576.256 584.627 574.033V563.737H581.702V561.124H584.627V557.614ZM611.701 571.186H598.441C598.519 575.827 601.444 577.738 604.915 577.738C607.372 577.738 608.893 577.309 610.141 576.763L610.765 579.22C609.556 579.766 607.45 580.429 604.447 580.429C598.636 580.429 595.165 576.568 595.165 570.874C595.165 565.18 598.519 560.734 604.018 560.734C610.219 560.734 611.818 566.116 611.818 569.587C611.818 570.289 611.779 570.796 611.701 571.186ZM598.48 568.729H608.503C608.542 566.584 607.606 563.191 603.745 563.191C600.235 563.191 598.753 566.35 598.48 568.729ZM628.938 576.763L629.523 579.337C628.626 579.766 626.637 580.429 624.102 580.429C618.408 580.429 614.703 576.568 614.703 570.796C614.703 564.985 618.681 560.734 624.843 560.734C626.871 560.734 628.665 561.241 629.601 561.748L628.821 564.361C628.002 563.932 626.715 563.464 624.843 563.464C620.514 563.464 618.174 566.701 618.174 570.601C618.174 574.969 620.982 577.66 624.726 577.66C626.676 577.66 627.963 577.192 628.938 576.763ZM633.549 580V566.233C633.549 564.244 633.51 562.684 633.393 561.124H636.435L636.63 564.244H636.708C637.644 562.489 639.828 560.734 642.948 560.734C645.561 560.734 649.617 562.294 649.617 568.768V580H646.185V569.119C646.185 566.077 645.054 563.542 641.817 563.542C639.594 563.542 637.839 565.141 637.215 567.052C637.059 567.481 636.981 568.066 636.981 568.651V580H633.549ZM663.177 560.734C668.598 560.734 672.264 564.673 672.264 570.406C672.264 577.387 667.389 580.429 662.865 580.429C657.795 580.429 653.817 576.685 653.817 570.718C653.817 564.439 657.99 560.734 663.177 560.734ZM663.099 563.308C659.082 563.308 657.327 567.052 657.327 570.601C657.327 574.735 659.667 577.855 663.021 577.855C666.297 577.855 668.754 574.774 668.754 570.523C668.754 567.325 667.155 563.308 663.099 563.308Z" fill="white"/>
<path d="M583.847 613V585.31H587.279V613H583.847ZM601.059 593.734C606.48 593.734 610.146 597.673 610.146 603.406C610.146 610.387 605.271 613.429 600.747 613.429C595.677 613.429 591.699 609.685 591.699 603.718C591.699 597.439 595.872 593.734 601.059 593.734ZM600.981 596.308C596.964 596.308 595.209 600.052 595.209 603.601C595.209 607.735 597.549 610.855 600.903 610.855C604.179 610.855 606.636 607.774 606.636 603.523C606.636 600.325 605.037 596.308 600.981 596.308ZM630.614 599.272V610.231C630.614 614.599 629.717 617.212 627.923 618.889C626.051 620.566 623.399 621.151 621.02 621.151C618.758 621.151 616.262 620.605 614.741 619.591L615.599 616.939C616.847 617.758 618.797 618.46 621.137 618.46C624.647 618.46 627.221 616.627 627.221 611.83V609.763H627.143C626.129 611.518 624.062 612.922 621.137 612.922C616.457 612.922 613.103 608.944 613.103 603.718C613.103 597.322 617.276 593.734 621.644 593.734C624.92 593.734 626.675 595.411 627.533 596.971H627.611L627.728 594.124H630.77C630.653 595.45 630.614 597.01 630.614 599.272ZM627.182 604.966V601.573C627.182 600.988 627.143 600.481 626.987 600.052C626.363 598.024 624.725 596.386 622.19 596.386C618.914 596.386 616.574 599.155 616.574 603.523C616.574 607.228 618.485 610.309 622.151 610.309C624.296 610.309 626.207 608.983 626.909 606.799C627.104 606.214 627.182 605.551 627.182 604.966ZM639.457 613H636.025V594.124H639.457V613ZM637.741 586.675C638.989 586.675 639.847 587.611 639.847 588.82C639.847 589.99 639.028 590.926 637.663 590.926C636.415 590.926 635.596 589.99 635.596 588.82C635.596 587.65 636.454 586.675 637.741 586.675ZM658.425 601.417V608.476C658.425 610.114 658.503 611.713 658.698 613H655.617L655.344 610.621H655.227C654.174 612.103 652.146 613.429 649.455 613.429C645.633 613.429 643.683 610.738 643.683 608.008C643.683 603.445 647.739 600.949 655.032 600.988V600.598C655.032 599.077 654.603 596.23 650.742 596.269C648.948 596.269 647.115 596.776 645.789 597.673L645.009 595.372C646.569 594.397 648.87 593.734 651.249 593.734C657.021 593.734 658.425 597.673 658.425 601.417ZM655.11 606.643V603.367C651.366 603.289 647.115 603.952 647.115 607.618C647.115 609.88 648.597 610.894 650.313 610.894C652.809 610.894 654.408 609.334 654.954 607.735C655.071 607.345 655.11 606.955 655.11 606.643Z" fill="white"/>
<path d="M689.5 453C684.813 453 681 456.813 681 461.5C681 466.187 684.813 470 689.5 470C694.187 470 698 466.187 698 461.5C698 456.813 694.187 453 689.5 453ZM689.5 454.308C693.48 454.308 696.693 457.52 696.693 461.5C696.693 465.48 693.48 468.693 689.5 468.693C685.52 468.693 682.307 465.48 682.307 461.5C682.307 457.52 685.52 454.308 689.5 454.308ZM686.231 456.923V466.077H687.538V463.462H689.171L691.102 466.077H692.728L690.636 463.245C691.877 462.779 692.769 461.59 692.769 460.192C692.769 458.394 691.298 456.923 689.5 456.923H686.231ZM687.538 458.231H689.5C690.592 458.231 691.462 459.101 691.462 460.192C691.462 461.284 690.592 462.154 689.5 462.154H687.538V458.231Z" fill="white"/>
</svg>
